<svg width="512" height="512" viewBox="0 0 512 512" fill="none" xmlns="http://www.w3.org/2000/svg">
  <!-- Background -->
  <rect width="512" height="512" rx="115" fill="#0a0a0a"/>

  <!-- Outer Ring -->
  <circle cx="256" cy="256" r="165" stroke="#1c1c1c" stroke-width="30"/>
  <circle cx="256" cy="256" r="165" stroke="#D97706" stroke-width="30" stroke-linecap="round"
          stroke-dasharray="725.7 1036.7" transform="rotate(-90 256 256)"/>

  <!-- Inner Ring -->
  <circle cx="256" cy="256" r="108" stroke="#1c1c1c" stroke-width="30"/>
  <circle cx="256" cy="256" r="108" stroke="#10A37F" stroke-width="30" stroke-linecap="round"
          stroke-dasharray="542.9 678.6" transform="rotate(-90 256 256)"/>

  <!-- Double needle -->
  <g transform="rotate(52 256 256)">
    <line x1="256" y1="245" x2="256" y2="105" stroke="#D97706" stroke-width="7" stroke-linecap="round"/>
  </g>
  <g transform="rotate(80 256 256)">
    <line x1="256" y1="245" x2="256" y2="150" stroke="#10A37F" stroke-width="6" stroke-linecap="round"/>
  </g>

  <!-- Center - Circuit/Chip style -->
  <rect x="226" y="226" width="60" height="60" rx="8" fill="#141414" stroke="#2a2a2a" stroke-width="2"/>

  <!-- Chip pins -->
  <line x1="236" y1="226" x2="236" y2="218" stroke="#333" stroke-width="3"/>
  <line x1="256" y1="226" x2="256" y2="218" stroke="#333" stroke-width="3"/>
  <line x1="276" y1="226" x2="276" y2="218" stroke="#333" stroke-width="3"/>
  <line x1="236" y1="286" x2="236" y2="294" stroke="#333" stroke-width="3"/>
  <line x1="256" y1="286" x2="256" y2="294" stroke="#333" stroke-width="3"/>
  <line x1="276" y1="286" x2="276" y2="294" stroke="#333" stroke-width="3"/>

  <!-- AI text on chip -->
  <text x="256" y="264" text-anchor="middle" fill="#666" font-family="SF Pro, Helvetica" font-size="22" font-weight="700">AI</text>
</svg>
