<svg width="512" height="512" viewBox="0 0 512 512" fill="none" xmlns="http://www.w3.org/2000/svg">
  <!-- Background -->
  <rect width="512" height="512" rx="115" fill="#0b0b0b"/>

  <!-- Outer Ring -->
  <circle cx="256" cy="256" r="165" stroke="#1a1a1a" stroke-width="28"/>
  <circle cx="256" cy="256" r="165" stroke="#D97706" stroke-width="28" stroke-linecap="round"
          stroke-dasharray="725.7 1036.7" transform="rotate(-90 256 256)"/>

  <!-- Inner Ring -->
  <circle cx="256" cy="256" r="110" stroke="#1a1a1a" stroke-width="28"/>
  <circle cx="256" cy="256" r="110" stroke="#10A37F" stroke-width="28" stroke-linecap="round"
          stroke-dasharray="552.9 691.2" transform="rotate(-90 256 256)"/>

  <!-- Double needle - tapered -->
  <g transform="rotate(50 256 256)">
    <path d="M252 256 L256 100 L260 256 Z" fill="#D97706"/>
  </g>
  <g transform="rotate(78 256 256)">
    <path d="M253 256 L256 145 L259 256 Z" fill="#10A37F"/>
  </g>

  <!-- Center with sparkle/AI icon -->
  <circle cx="256" cy="256" r="42" fill="#141414"/>

  <!-- Sparkle star -->
  <g transform="translate(256, 256)">
    <path d="M0 -18 L4 -4 L18 0 L4 4 L0 18 L-4 4 L-18 0 L-4 -4 Z" fill="#888"/>
    <path d="M0 -10 L2 -2 L10 0 L2 2 L0 10 L-2 2 L-10 0 L-2 -2 Z" fill="#aaa"/>
  </g>
</svg>
