<svg width="512" height="512" viewBox="0 0 512 512" fill="none" xmlns="http://www.w3.org/2000/svg">
  <!-- Background -->
  <rect width="512" height="512" rx="115" fill="#1a1a1a"/>

  <!-- Outer Ring Track -->
  <circle cx="256" cy="256" r="160" stroke="#333333" stroke-width="32"/>
  <!-- Outer Ring Progress: Orange 70% -->
  <circle cx="256" cy="256" r="160" stroke="#D97706" stroke-width="32" stroke-linecap="round"
          stroke-dasharray="703.7 1005.3" transform="rotate(-90 256 256)"/>

  <!-- Inner Ring Track -->
  <circle cx="256" cy="256" r="110" stroke="#333333" stroke-width="32"/>
  <!-- Inner Ring Progress: Teal 80% -->
  <circle cx="256" cy="256" r="110" stroke="#10A37F" stroke-width="32" stroke-linecap="round"
          stroke-dasharray="552.9 691.2" transform="rotate(-90 256 256)"/>

  <!-- AI Brain Icon in Center -->
  <g transform="translate(256, 256)">
    <!-- Brain outline -->
    <path d="M-25 -10 C-35 -25 -20 -40 -5 -35 C5 -50 25 -45 30 -30 C45 -30 45 -10 35 0
             C45 15 35 35 20 30 C10 45 -15 40 -20 25 C-40 25 -40 5 -25 -10 Z"
          fill="none" stroke="#888" stroke-width="4" stroke-linecap="round"/>
    <!-- Neural connections -->
    <circle cx="-10" cy="-15" r="5" fill="#D97706"/>
    <circle cx="15" cy="-10" r="5" fill="#10A37F"/>
    <circle cx="0" cy="10" r="5" fill="#D97706"/>
    <circle cx="-15" cy="5" r="4" fill="#10A37F"/>
    <circle cx="20" cy="15" r="4" fill="#10A37F"/>
    <!-- Connection lines -->
    <line x1="-10" y1="-15" x2="15" y2="-10" stroke="#555" stroke-width="2"/>
    <line x1="-10" y1="-15" x2="0" y2="10" stroke="#555" stroke-width="2"/>
    <line x1="15" y1="-10" x2="0" y2="10" stroke="#555" stroke-width="2"/>
    <line x1="-15" y1="5" x2="0" y2="10" stroke="#555" stroke-width="2"/>
    <line x1="0" y1="10" x2="20" y2="15" stroke="#555" stroke-width="2"/>
  </g>
</svg>
